<svg width="100" height="100" viewBox="0 0 100 100" fill="none" xmlns="http://www.w3.org/2000/svg">
<g clip-path="url(#clip0_132_23)">
<path d="M24.4 85V75.4H44.5C48.1667 75.4 51 74.4 53 72.4C55 70.3333 56 67.5333 56 64C56 60.3333 54.9333 57.4333 52.8 55.3C50.6667 53.1667 47.7 52.1 43.9 52.1H24.4V42.5H43C46.6 42.5 49.3667 41.6333 51.3 39.9C53.2333 38.1667 54.2 35.6667 54.2 32.4C54.2 29.2 53.2667 26.7667 51.4 25.1C49.6 23.4333 46.9333 22.6 43.4 22.6H24.4V13H45.8C52.2667 13 57.4333 14.6333 61.3 17.9C65.2333 21.1 67.2 25.4667 67.2 31C67.2 34.4667 66.3667 37.5 64.7 40.1C63.1 42.6333 60.9333 44.6 58.2 46C55.4667 47.4 52.3667 48.1 48.9 48.1L49.4 46C53.0667 46 56.4 46.8333 59.4 48.5C62.4 50.1 64.7667 52.3667 66.5 55.3C68.3 58.2333 69.2 61.6333 69.2 65.5C69.2 69.4333 68.2667 72.8667 66.4 75.8C64.6 78.7333 62.0333 81 58.7 82.6C55.4333 84.2 51.5667 85 47.1 85H24.4ZM14.2 85V13H27.2V85H14.2ZM75.4375 85V70.6H89.9375V85H75.4375Z" fill="white"/>
</g>
<defs>
<clipPath id="clip0_132_23">
<rect width="100" height="100" fill="white"/>
</clipPath>
</defs>
</svg>
