<svg width="32" height="32" viewBox="0 0 32 32" fill="none" xmlns="http://www.w3.org/2000/svg">
<rect width="32" height="32" fill="#111111"/>
<path d="M9.936 25V22.696H14.76C15.64 22.696 16.32 22.456 16.8 21.976C17.28 21.48 17.52 20.808 17.52 19.96C17.52 19.08 17.264 18.384 16.752 17.872C16.24 17.36 15.528 17.104 14.616 17.104H9.936V14.8H14.4C15.264 14.8 15.928 14.592 16.392 14.176C16.856 13.76 17.088 13.16 17.088 12.376C17.088 11.608 16.864 11.024 16.416 10.624C15.984 10.224 15.344 10.024 14.496 10.024H9.936V7.72H15.072C16.624 7.72 17.864 8.112 18.792 8.896C19.736 9.664 20.208 10.712 20.208 12.04C20.208 12.872 20.008 13.6 19.608 14.224C19.224 14.832 18.704 15.304 18.048 15.64C17.392 15.976 16.648 16.144 15.816 16.144L15.936 15.64C16.816 15.64 17.616 15.84 18.336 16.24C19.056 16.624 19.624 17.168 20.04 17.872C20.472 18.576 20.688 19.392 20.688 20.32C20.688 21.264 20.464 22.088 20.016 22.792C19.584 23.496 18.968 24.04 18.168 24.424C17.384 24.808 16.456 25 15.384 25H9.936ZM7.488 25V7.72H10.608V25H7.488ZM22.185 25V21.544H25.665V25H22.185Z" fill="white"/>
</svg>
