<svg width="256" height="256" viewBox="0 0 256 256" fill="none" xmlns="http://www.w3.org/2000/svg">
<rect width="256" height="256" fill="#111111"/>
<path d="M78.8 200V180.8H119C126.333 180.8 132 178.8 136 174.8C140 170.667 142 165.067 142 158C142 150.667 139.867 144.867 135.6 140.6C131.333 136.333 125.4 134.2 117.8 134.2H78.8V115H116C123.2 115 128.733 113.267 132.6 109.8C136.467 106.333 138.4 101.333 138.4 94.8C138.4 88.4 136.533 83.5333 132.8 80.2C129.2 76.8667 123.867 75.2 116.8 75.2H78.8V56H121.6C134.533 56 144.867 59.2667 152.6 65.8C160.467 72.2 164.4 80.9333 164.4 92C164.4 98.9333 162.733 105 159.4 110.2C156.2 115.267 151.867 119.2 146.4 122C140.933 124.8 134.733 126.2 127.8 126.2L128.8 122C136.133 122 142.8 123.667 148.8 127C154.8 130.2 159.533 134.733 163 140.6C166.6 146.467 168.4 153.267 168.4 161C168.4 168.867 166.533 175.733 162.8 181.6C159.2 187.467 154.067 192 147.4 195.2C140.867 198.4 133.133 200 124.2 200H78.8ZM58.4 200V56H84.4V200H58.4ZM180.875 200V171.2H209.875V200H180.875Z" fill="white"/>
</svg>
