<svg width="32" height="32" viewBox="0 0 32 32" fill="none" xmlns="http://www.w3.org/2000/svg">
<rect width="32" height="32" fill="#111111"/>
<path d="M19.224 25C17.768 25 16.52 24.704 15.48 24.112C14.44 23.504 13.656 22.672 13.128 21.616C12.6 20.56 12.336 19.36 12.336 18.016C12.336 16.64 12.624 15.424 13.2 14.368C13.776 13.296 14.6 12.472 15.672 11.896C16.744 11.32 18.008 11.032 19.464 11.032C20.52 11.032 21.464 11.248 22.296 11.68C23.128 12.096 23.768 12.656 24.216 13.36L21.504 15.136C21.168 14.72 20.76 14.408 20.28 14.2C19.816 13.992 19.288 13.888 18.696 13.888C17.768 13.888 17 14.112 16.392 14.56C15.8 14.992 15.352 15.576 15.048 16.312C14.744 17.032 14.592 17.872 14.592 18.832C14.592 19.76 14.744 20.56 15.048 21.232C15.368 21.904 15.808 22.424 16.368 22.792C16.928 23.16 17.592 23.344 18.36 23.344C18.904 23.344 19.4 23.232 19.848 23.008C20.312 22.784 20.728 22.472 21.096 22.072L23.632 24.064C22.992 24.48 22.256 24.8 21.424 25.024C20.608 24.8 19.896 25 19.224 25ZM7.488 25V7.72H10.608V25H7.488Z" fill="white"/>
</svg>
